<?xml version="1.0" encoding="UTF-8"?>
<svg width="32px" height="32px" viewBox="0 0 32 32" version="1.1" xmlns="http://www.w3.org/2000/svg" xmlns:xlink="http://www.w3.org/1999/xlink">
    <title>Icon/Install</title>
    <g id="Icon/Install" stroke="none" stroke-width="1" fill="none" fill-rule="evenodd">
        <path d="M26.4995,13.0215454 C27.2791961,13.0215454 27.9199487,13.6164335 27.9926334,14.3770854 L27.9995,14.5215454 L27.9995,20.5 C27.9995,24.5609173 24.7720256,27.8680175 20.7422311,27.9961464 L20.4995,28 L11.5,28 C7.43908272,28 4.13198248,24.7725256 4.00385357,20.7427311 L4,20.5 L4,14.5215454 C4,13.6931183 4.67157288,13.0215454 5.5,13.0215454 C6.27969612,13.0215454 6.92044868,13.6164335 6.99313342,14.3770854 L7,14.5215454 L7,20.5 C7,22.9142733 8.90123652,24.8844891 11.2881643,24.995102 L11.5,25 L20.4995,25 C22.9137733,25 24.8839891,23.0987635 24.994602,20.7118357 L24.9995,20.5 L24.9995,14.5215454 C24.9995,13.6931183 25.6710729,13.0215454 26.4995,13.0215454 Z M16,4 C16.8284271,4 17.5,4.67157288 17.5,5.5 L17.4992525,17.328 L19.8890873,14.9393398 C20.4748737,14.3535534 21.4246212,14.3535534 22.0104076,14.9393398 C22.5961941,15.5251263 22.5961941,16.4748737 22.0104076,17.0606602 L17.0606602,22.0104076 C16.4748737,22.5961941 15.5251263,22.5961941 14.9393398,22.0104076 L9.98959236,17.0606602 C9.40380592,16.4748737 9.40380592,15.5251263 9.98959236,14.9393398 C10.5753788,14.3535534 11.5251263,14.3535534 12.1109127,14.9393398 L14.4992525,17.328 L14.5,5.5 C14.5,4.67157288 15.1715729,4 16,4 Z" id="Shape" fill="#323232" fill-rule="nonzero"></path>
    </g>
</svg>